<svg width="60" height="98" viewBox="0 0 60 98" fill="none" xmlns="http://www.w3.org/2000/svg">
<path d="M4.36234 71.4672C3.77931 71.4672 3.30775 71.2872 2.94764 70.9271C2.60469 70.567 2.43321 70.0954 2.43321 69.5124C2.43321 68.9465 2.60469 68.4921 2.94764 68.1491C3.30775 67.8062 3.77931 67.6347 4.36234 67.6347C4.92822 67.6347 5.38263 67.8062 5.72559 68.1491C6.06855 68.4921 6.24002 68.9465 6.24002 69.5124C6.24002 70.1125 6.06855 70.5927 5.72559 70.9528C5.38263 71.2957 4.92822 71.4672 4.36234 71.4672ZM8.63215 71.4672C8.06627 71.4672 7.60328 71.2872 7.24317 70.9271C6.90022 70.567 6.72874 70.0954 6.72874 69.5124C6.72874 68.9465 6.90022 68.4921 7.24317 68.1491C7.60328 67.8062 8.06627 67.6347 8.63215 67.6347C9.19802 67.6347 9.65244 67.8062 9.9954 68.1491C10.3555 68.4921 10.5356 68.9465 10.5356 69.5124C10.5356 70.1125 10.3641 70.5927 10.0211 70.9528C9.67816 71.2957 9.21517 71.4672 8.63215 71.4672ZM12.7991 82.399H15.3198V86H12.439C10.9128 86 9.70389 85.5284 8.8122 84.5853C8.12629 85.0311 7.28604 85.2541 6.29147 85.2541C4.67957 85.2541 3.39349 84.6539 2.43321 83.4535C1.62726 82.459 1.22429 81.2843 1.22429 79.9297C1.22429 78.2149 1.79874 76.8173 2.94764 75.737C3.87362 74.8453 4.95394 74.3995 6.18858 74.3995C6.65157 74.3995 7.11456 74.4681 7.57755 74.6053V74.0908L11.3072 72.136V80.9071C11.3072 81.4558 11.4187 81.8417 11.6416 82.0646C11.8645 82.2875 12.2503 82.399 12.7991 82.399ZM7.57755 78.232C7.25175 78.0263 6.88307 77.9234 6.47152 77.9234C5.99138 77.9234 5.60555 78.112 5.31404 78.4893C5.03968 78.8665 4.90249 79.3724 4.90249 80.0068C4.90249 81.3958 5.44265 82.0903 6.52296 82.0903C7.0031 82.0903 7.36321 81.9531 7.60328 81.6787C7.58613 81.5416 7.57755 81.3358 7.57755 81.0614V78.232ZM13.9252 86V82.399H16.4459C16.9947 82.399 17.3805 82.2875 17.6034 82.0646C17.8263 81.8417 17.9378 81.4558 17.9378 80.9071V76.4058L21.6674 74.4252V81.0614C21.6674 82.6562 21.1702 83.908 20.1756 84.8168C19.3182 85.6056 18.195 86 16.806 86H13.9252ZM15.2627 92.0446C14.6797 92.0446 14.2167 91.8646 13.8738 91.5045C13.5136 91.1443 13.3336 90.6728 13.3336 90.0898C13.3336 89.5239 13.5136 89.0695 13.8738 88.7265C14.2167 88.3835 14.6797 88.2121 15.2627 88.2121C15.8286 88.2121 16.283 88.3835 16.626 88.7265C16.9689 89.0695 17.1404 89.5239 17.1404 90.0898C17.1404 90.6899 16.9689 91.1615 16.626 91.5045C16.283 91.8646 15.8286 92.0446 15.2627 92.0446ZM19.5325 92.0446C18.9667 92.0446 18.5037 91.8646 18.1436 91.5045C17.8006 91.1443 17.6291 90.6728 17.6291 90.0898C17.6291 89.5239 17.8006 89.0695 18.1436 88.7265C18.5037 88.3835 18.9667 88.2121 19.5325 88.2121C20.0984 88.2121 20.5528 88.3835 20.8958 88.7265C21.2559 89.0695 21.4359 89.5239 21.4359 90.0898C21.4359 90.6899 21.2645 91.1615 20.9215 91.5045C20.5786 91.8646 20.1156 92.0446 19.5325 92.0446ZM31.1654 86C29.5878 86 28.3532 85.4941 27.4615 84.4824C26.6898 83.5907 26.304 82.4504 26.304 81.0614V71.3901L30.0336 69.4095V80.9071C30.0336 81.4558 30.1451 81.8417 30.368 82.0646C30.5909 82.2875 30.9768 82.399 31.5255 82.399H34.0462V86H31.1654ZM47.0166 82.399V86H32.6639V82.399H36.1878C35.8277 81.5587 35.6476 80.6413 35.6476 79.6467C35.6476 77.8291 36.2907 76.3715 37.5767 75.274C38.6228 74.3995 39.8403 73.9622 41.2292 73.9622C43.0983 73.9622 44.6159 74.7767 45.782 76.4058V79.6467C44.4959 78.1892 43.1241 77.4604 41.6665 77.4604C41.6493 77.4604 41.6322 77.4604 41.6151 77.4604H41.5636C40.106 77.4947 39.3773 78.2663 39.3773 79.7753C39.3773 80.5984 39.6431 81.2415 40.1746 81.7045C40.7062 82.1675 41.4521 82.399 42.4124 82.399H47.0166ZM55.6863 84.2766C55.6863 85.7514 55.3862 87.0289 54.786 88.1092C54.1858 89.2066 53.337 90.004 52.2395 90.5013C51.5193 90.8443 50.7391 91.0157 49.8989 91.0157C48.7671 91.0157 47.6611 90.7157 46.5808 90.1155V86.8745C47.4724 87.3718 48.3384 87.6205 49.1787 87.6205C49.6073 87.6205 50.0017 87.5519 50.3619 87.4147C51.4079 87.0546 51.9309 86.0943 51.9309 84.5339V76.4315L55.6863 74.4252V84.2766Z" fill="#10807E"/>
<path d="M40.8552 7.51526C36.4672 7.51526 32.5399 9.64862 30.0914 12.9214C27.6429 9.64862 23.7155 7.51526 19.3276 7.51526C11.8851 7.51526 5.84863 13.5759 5.84863 21.067C5.84863 23.9518 6.30925 26.6185 7.10926 29.0913C10.9396 41.2127 22.7458 48.4613 28.5883 50.4492C29.4126 50.7401 30.7702 50.7401 31.5944 50.4492C37.4369 48.4613 49.2432 41.2127 53.0735 29.0913C53.8735 26.6185 54.3341 23.9518 54.3341 21.067C54.3341 13.5759 48.2977 7.51526 40.8552 7.51526Z" fill="#10807E"/>
<path d="M8.05957 11.8624L19.0216 27.9467C20.349 29.8942 22.5534 31.0595 24.9102 31.0595L40.2238 31.0595C42.5287 31.0595 44.6935 32.1727 46.0663 34.0241C47.4855 35.9379 48.9348 37.8697 49.2962 38.4118" stroke="white" stroke-width="2.37539"/>
</svg>
