<svg width="48" height="48" viewBox="0 0 48 48" fill="none" xmlns="http://www.w3.org/2000/svg">
<path d="M32.88 6.20001C29.26 6.20001 26.02 7.96001 24 10.66C21.98 7.96001 18.74 6.20001 15.12 6.20001C8.98 6.20001 4 11.2 4 17.38C4 19.76 4.38 21.96 5.04 24C8.2 34 17.94 39.98 22.76 41.62C23.44 41.86 24.56 41.86 25.24 41.62C30.06 39.98 39.8 34 42.96 24C43.62 21.96 44 19.76 44 17.38C44 11.2 39.02 6.20001 32.88 6.20001Z" fill="#10807E"/>
<path d="M5.82324 9.78638L14.8668 23.0557C15.9619 24.6624 17.7805 25.6238 19.7249 25.6238L32.3584 25.6238C34.2599 25.6238 36.0458 26.5421 37.1784 28.0695C38.3492 29.6484 39.5448 31.2421 39.843 31.6893" stroke="white" stroke-width="1.95967"/>
</svg>
