<?xml version="1.0" ?><svg id="Layer_3" style="enable-background:new 0 0 64 64;" version="1.1" viewBox="0 0 64 64" xml:space="preserve" xmlns="http://www.w3.org/2000/svg" xmlns:xlink="http://www.w3.org/1999/xlink"><g><path d="M33.768,36.5c0,0.827,0.673,1.5,1.5,1.5s1.5-0.673,1.5-1.5s-0.673-1.5-1.5-1.5S33.768,35.673,33.768,36.5z"/><path d="M26.768,36.5c0,0.827,0.673,1.5,1.5,1.5s1.5-0.673,1.5-1.5s-0.673-1.5-1.5-1.5S26.768,35.673,26.768,36.5z"/><path d="M58.853,19.328l-3.657-0.812c-1.022-0.228-1.863-0.986-2.195-1.98l-0.096-0.286c2.287-1.153,3.863-3.518,3.863-6.249V8   c0-3.86-3.141-7-7-7s-7,3.14-7,7v2c0,2.731,1.576,5.096,3.863,6.249l-0.095,0.286c-0.332,0.994-1.173,1.752-2.196,1.98   l-3.656,0.812c-1.313,0.292-2.419,1.084-3.122,2.186C36.691,21.187,35.752,21,34.768,21h-6c-0.912,0-1.785,0.161-2.603,0.443   c-0.704-1.066-1.794-1.83-3.08-2.116l-3.657-0.812c-1.022-0.227-1.863-0.986-2.195-1.98l-0.096-0.286   C19.424,15.096,21,12.731,21,10V8c0-3.86-3.141-7-7-7S7,4.14,7,8v2c0,2.731,1.576,5.096,3.863,6.249l-0.096,0.286   c-0.332,0.994-1.173,1.753-2.195,1.98l-3.657,0.812C2.609,19.84,1,21.847,1,24.208V32c0,0.552,0.447,1,1,1h18.768v0.556   c-1.19,0.694-2,1.97-2,3.444c0,2.206,1.794,4,4,4h0.525c0.485,1.365,1.287,2.578,2.323,3.551l-6.162,1.681   c-2.17,0.592-3.686,2.575-3.686,4.824V62c0,0.552,0.447,1,1,1h30c0.553,0,1-0.448,1-1V51.055c0-2.249-1.515-4.232-3.685-4.824   l-6.163-1.681c1.035-0.973,1.838-2.185,2.322-3.551h0.525c2.206,0,4-1.794,4-4c0-1.474-0.81-2.75-2-3.444V33h19   c0.553,0,1-0.448,1-1v-7.792C62.768,21.847,61.158,19.84,58.853,19.328z M44.768,8c0-2.757,2.243-5,5-5s5,2.243,5,5v2   c0,0.214-0.037,0.418-0.063,0.626C53.344,9.576,51.688,9,49.939,9h-0.343c-1.748,0-3.404,0.576-4.766,1.626   c-0.026-0.207-0.063-0.412-0.063-0.626V8z M45.542,12.646C46.636,11.586,48.071,11,49.597,11h0.343   c1.526,0,2.961,0.586,4.053,1.646C53.107,14.054,51.551,15,49.768,15S46.428,14.054,45.542,12.646z M49.768,17   c0.424,0,0.837-0.044,1.241-0.117l0.095,0.285c0.165,0.496,0.415,0.951,0.718,1.364l-2.054,2.054l-2.053-2.053   c0.304-0.413,0.554-0.869,0.719-1.366l0.094-0.284C48.931,16.956,49.344,17,49.768,17z M34.768,23c3.309,0,6,2.691,6,6h-18   c0-3.309,2.691-6,6-6H34.768z M38.533,39.765l-0.635-0.318c-3.786-1.893-8.473-1.894-12.261,0l-0.636,0.318   C24.854,39.2,24.768,38.611,24.768,38v-3h3.5h7h3.5v3C38.768,38.611,38.681,39.2,38.533,39.765z M27.768,59c0.552,0,1,0.449,1,1v1   h-2v-1C26.768,59.449,27.216,59,27.768,59z M28.768,57.184v-7.882l2.168,3.252C31.121,52.833,31.434,53,31.768,53   s0.646-0.167,0.832-0.445l2.168-3.252v7.882c-1.161,0.414-2,1.514-2,2.816c0,0.352,0.072,0.686,0.184,1h-2.184v-1   C30.768,58.698,29.929,57.598,28.768,57.184z M29.422,46.679C30.171,46.882,30.955,47,31.768,47s1.596-0.118,2.345-0.321   l-2.345,3.518L29.422,46.679z M34.768,60c0-0.551,0.448-1,1-1s1,0.449,1,1s-0.448,1-1,1S34.768,60.551,34.768,60z M31.768,45   c-2.538,0-4.758-1.362-5.985-3.389l0.75-0.375c3.234-1.619,7.237-1.618,10.472,0l0.749,0.375C36.525,43.638,34.305,45,31.768,45z    M39.768,33h-16h-1v-2h18v2H39.768z M9,8c0-2.757,2.243-5,5-5s5,2.243,5,5v2c0,0.214-0.037,0.418-0.063,0.626   C17.576,9.576,15.92,9,14.172,9h-0.344c-1.748,0-3.404,0.576-4.765,1.626C9.037,10.418,9,10.214,9,10V8z M9.775,12.646   C10.867,11.586,12.302,11,13.828,11h0.344c1.526,0,2.961,0.586,4.053,1.646C17.34,14.054,15.783,15,14,15   S10.66,14.054,9.775,12.646z M14,17c0.424,0,0.837-0.044,1.241-0.117l0.095,0.285c0.165,0.496,0.415,0.951,0.718,1.364L14,20.586   l-2.054-2.054c0.303-0.413,0.553-0.868,0.718-1.364l0.095-0.285C13.163,16.956,13.576,17,14,17z M3,31v-6.792   c0-1.417,0.966-2.621,2.349-2.929l3.657-0.812c0.521-0.116,1.008-0.323,1.457-0.59l2.83,2.83C13.488,22.902,13.744,23,14,23   s0.512-0.098,0.707-0.293l2.83-2.83c0.449,0.267,0.936,0.474,1.457,0.59l3.657,0.812c0.683,0.152,1.26,0.541,1.679,1.068   c-2.146,1.436-3.563,3.881-3.563,6.652v2H3z M22.768,39c-1.103,0-2-0.897-2-2s0.897-2,2-2v3c0,0.338,0.022,0.671,0.059,1H22.768z    M19.979,48.161l6.789-1.852v10.875c-1.161,0.414-2,1.514-2,2.816v1h-1v-7h-2v3h-4v-5.945   C17.768,49.706,18.677,48.516,19.979,48.161z M17.768,59h4v2h-4V59z M41.768,61v-2h4v2H41.768z M45.768,51.055V57h-4v-3h-2v7   h-1.184c0.112-0.314,0.184-0.648,0.184-1c0-1.302-0.839-2.402-2-2.816V46.309l6.79,1.852   C44.858,48.516,45.768,49.706,45.768,51.055z M40.768,39h-0.059c0.037-0.329,0.059-0.662,0.059-1v-3c1.103,0,2,0.897,2,2   S41.87,39,40.768,39z M60.768,31h-18v-2c0-2.708-1.356-5.101-3.42-6.549c0.424-0.585,1.041-1.009,1.77-1.171l3.656-0.812   c0.521-0.116,1.009-0.323,1.458-0.59l2.83,2.83C49.256,22.902,49.512,23,49.768,23s0.512-0.098,0.707-0.293l2.83-2.83   c0.449,0.267,0.936,0.474,1.457,0.59l3.657,0.812c1.383,0.308,2.349,1.512,2.349,2.929V31z"/><rect height="2" width="6" x="52.768" y="27"/><rect height="2" width="6" x="4.768" y="27"/></g></svg>