<svg width="22" height="22" viewBox="0 0 22 22" fill="none" xmlns="http://www.w3.org/2000/svg">
<g id="Group 41448">
<path id="Path 38387" d="M1.21582 21H21.2158" stroke="#292D32" stroke-width="1.5" stroke-miterlimit="10" stroke-linecap="round" stroke-linejoin="round"/>
<path id="Path 38389" opacity="0.6" d="M13.2761 14H9.14606C8.89716 14.0013 8.65883 14.1008 8.48283 14.2768C8.30683 14.4528 8.20737 14.6911 8.20605 14.94V21H14.2061V14.94C14.2082 14.8168 14.1857 14.6945 14.1398 14.5801C14.094 14.4658 14.0257 14.3617 13.939 14.2741C13.8524 14.1866 13.7491 14.1172 13.6352 14.0701C13.5214 14.023 13.3993 13.9992 13.2761 14Z" stroke="#10807E" stroke-width="1.5" stroke-miterlimit="10" stroke-linecap="round" stroke-linejoin="round"/>
<g id="Group 41447" opacity="0.6">
<path id="Path 38390" d="M11.2158 5V10" stroke="#10807E" stroke-width="1.5" stroke-miterlimit="10" stroke-linecap="round" stroke-linejoin="round"/>
<path id="Path 38391" d="M8.71582 7.5H13.7158" stroke="#10807E" stroke-width="1.5" stroke-miterlimit="10" stroke-linecap="round" stroke-linejoin="round"/>
</g>
<path id="Path 38388" d="M16.2158 1H6.21582C3.21582 1 2.21582 2.79 2.21582 5V21H20.2158V5C20.2158 2.79 19.2158 1 16.2158 1Z" stroke="#191933" stroke-width="1.5" stroke-miterlimit="10" stroke-linecap="round" stroke-linejoin="round"/>
</g>
</svg>
