<svg width="22" height="22" viewBox="0 0 22 22" fill="none" xmlns="http://www.w3.org/2000/svg">
<path d="M0.999791 7.99979V5.99979C0.95953 5.33268 1.06128 4.66463 1.29831 4.03975C1.53534 3.41488 1.90227 2.84741 2.37484 2.37484C2.84741 1.90227 3.41488 1.53534 4.03975 1.29831C4.66463 1.06128 5.33268 0.95953 5.99979 0.999791H15.9998C16.6669 0.95953 17.335 1.06128 17.9598 1.29831C18.5847 1.53534 19.1522 1.90227 19.6247 2.37484C20.0973 2.84741 20.4642 3.41488 20.7013 4.03975C20.9383 4.66463 21.0401 5.33268 20.9998 5.99979V7.99979" stroke="#191933" stroke-width="1.5" stroke-miterlimit="10" stroke-linecap="round" stroke-linejoin="round"/>
<path d="M0.999791 13.9998V15.9998C0.95953 16.6669 1.06128 17.3349 1.29831 17.9598C1.53534 18.5847 1.90227 19.1521 2.37484 19.6247C2.84741 20.0973 3.41488 20.4642 4.03975 20.7012C4.66463 20.9383 5.33268 21.04 5.99979 20.9998H15.9998C16.6669 21.04 17.335 20.9383 17.9598 20.7012C18.5847 20.4642 19.1522 20.0973 19.6247 19.6247C20.0973 19.1521 20.4642 18.5847 20.7013 17.9598C20.9383 17.3349 21.0401 16.6669 20.9998 15.9998V13.9998" stroke="#191933" stroke-width="1.5" stroke-miterlimit="10" stroke-linecap="round" stroke-linejoin="round"/>
<path opacity="0.6" d="M1 10.9998H21" stroke="#10807E" stroke-width="1.5" stroke-miterlimit="10" stroke-linecap="round" stroke-linejoin="round"/>
</svg>
